<?xml version="1.0" encoding="utf-8"?>
<!-- Generator: Adobe Illustrator 25.2.3, SVG Export Plug-In . SVG Version: 6.00 Build 0)  -->
<svg version="1.1" id="Layer_1" xmlns="http://www.w3.org/2000/svg" xmlns:xlink="http://www.w3.org/1999/xlink" x="0px" y="0px"
	 viewBox="0 0 85 85" style="enable-background:new 0 0 85 85;" xml:space="preserve">
<style type="text/css">
	.st0{fill:#FFFFFF;}
	.st1{fill:#FFFEF4;stroke:#FDF5A2;stroke-miterlimit:10;}
	.st2{fill:none;stroke:#EFF1B5;stroke-miterlimit:10;}
</style>
<g id="Layer_1_1_">
	<g>
		<path class="st0" d="M42.5,0C66,0,85,19,85,42.5S66,85,42.5,85S0,66,0,42.5S19,0,42.5,0z"/>
	</g>
</g>
<g id="Layer_4">
	<path class="st1" d="M42.1,25.1c0,0,9.9-0.4,11.6,17.3c0,0,1.4,9.8-5.8,14.3c-1.5,0.9-3.5,1-5.9,1.4c0,0-11.4,0.1-10.9-15.9
		C31.2,42.2,33,25.8,42.1,25.1z"/>
</g>
<g id="Layer_5">
	<path class="st2" d="M50.4,42.5c0,0,1.8,5.2-3.3,10.8"/>
</g>
</svg>
